<svg viewBox="0 0 900 834" xmlns="http://www.w3.org/2000/svg"> <g transform="translate(0 834) scale(.1 -.1)"> <path d="m5936 8143c-11-11-6-23 9-23 8 0 15 4 15 9 0 13-16 22-24 14z"/> <path d="m6059 8089c-8-31-3-79 7-79 9 0 11 11 7 38-5 34-11 52-14 41z"/> <path d="m6260 8066c0-16 7-27 21-31 30-10 34 0 12 29-23 32-33 33-33 2z"/> <path d="m6515 8079c-10-14-1-21 19-13 9 3 13 10 10 15-7 12-21 11-29-2z"/> <path d="m5863 8053c-7-2-13-13-13-24 0-14 7-19 26-19 25 0 26-2 21-41-3-23-13-47-24-54-15-11-16-16-5-27 20-20 44 2 57 55 11 43 10 49-5 60-10 7-19 21-21 31-4 21-17 27-36 19z"/> <path d="m5925 8051c-7-12 12-24 25-16 11 7 4 25-10 25-5 0-11-4-15-9z"/> <path d="m6110 8015c-15-18 4-29 29-15 11 5 39 10 62 10 57 0 46 6-23 13-41 4-60 2-68-8z"/> <path d="m6290 7995c-10-13-7-17 24-30 25-11 36-22 36-36 0-19-4-21-39-16-25 3-44 0-52-9-8-7-38-16-66-20-44-5-53-4-53 9 0 21 34 31 59 18 27-15 31-14 31 8 0 25-43 54-58 39-9-9-16-7-30 5-33 30-47 21-43-25 1-10-5-17-16-18-76-3-116-13-121-32-2-11-23-28-46-39-23-10-48-24-57-30-24-17-49-4-49 26 0 32-18 32-30 0-5-14-17-25-26-25s-30-7-47-16c-61-32-66-34-72-24-10 15-35 12-35-5 0-9-9-15-23-15-13 0-34-13-49-30-15-18-36-30-50-30s-41-15-62-35c-21-19-45-35-52-35-8 0-22-4-32-9-68-35-91-42-117-39-24 2-29 7-27 24 1 12-4 27-13 34-22 18-31-14-16-57 15-41 11-46-49-67-32-11-48-12-57-4-10 8-13 7-13-5 0-8 6-17 12-19 10-4 10-11 2-29l-11-24-12 23c-13 25-51 30-51 7 0-8 5-24 12-35 16-25 1-41-16-17-8 10-26 17-47 17-29-1-38-7-62-45-28-44-30-45-85-47-31 0-69 0-84 1-21 2-28-2-28-16 0-25-19-43-46-43-37 0-52-10-47-31 4-15 0-19-20-19-14 0-29-4-32-10-3-5-15-10-26-10-10 0-27-4-37-9-9-5-25-12-35-15-9-3-22-17-27-31s-21-30-34-35-28-15-33-22c-11-18-71-45-114-52-19-4-52-15-72-25s-39-16-42-13c-11 11-5 50 10 62 20 17 19 36-4 59-12 12-16 24-10 32 9 15-8 42-22 33-5-3-9-14-9-25 0-24-18-25-27-2-4 10-20 28-35 41s-28 30-28 37c0 29-59 57-127 61-40 3-78 12-97 23-52 31-106 21-157-28-43-41-63-49-74-31-3 5-22-2-42-16-26-17-45-23-61-19-27 7-62-18-62-43 0-10-6-12-22-8-13 4-53 7-91 6-46-1-74 4-89 14-31 22-71 20-86-4s-33-25-79-3c-29 13-41 14-67 5-48-17-70-15-94 11-25 26-20 37 15 37 32 0 29 22-8 43-38 21-78 22-85 2-5-11-21-15-60-15s-54-4-54-13c0-20 33-47 58-47 21 0 52-24 52-41 0-5-15-28-32-52-32-43-34-44-88-42-30 0-60 4-66 8-17 10-24-2-24-40s-16-44-29-9c-8 20-18 24-72 29-89 8-125-19-112-87 6-29 24-34 43-11 18 22 39 18 50-9 5-13 14-26 21-28 9-3 9-9 0-26-14-27-56-29-84-5-18 17-20 17-38-6-21-26-26-90-7-109 6-6 11-25 10-42-1-27 3-32 30-37 16-3 32-12 35-19 3-8 13-14 23-14 73 0 61-60-12-64-25-1-33-7-38-25-3-13-14-27-25-31-30-11-108 1-128 19-18 15-21 14-43-12-18-21-32-28-53-25-34 3-57-14-66-50-3-15-15-36-26-48-22-24-17-50 13-59 32-11 43-48 23-79-18-27-18-27 14-59 23-25 31-42 31-70 0-30 4-37 20-37 11 0 20-3 19-7-2-20-58-98-68-95-6 1-16 3-23 5-6 1-16-8-23-20-8-15-15-19-26-13-26 15-41-3-29-34 12-34 6-46-25-46-17 0-26-8-34-32-11-30-12-30-30-14-23 21-41 14-41-15 0-22-29-26-48-7-21 21-33-4-17-36 20-37 11-62-23-71-42-10-93-45-102-71-6-15-23-27-50-35-22-7-40-15-40-18s-6-14-14-23c-11-15-16-16-56-2-28 10-46 12-53 5-15-15-1-39 25-43 21-3 23-9 25-73 3-57 0-72-14-84-13-9-14-15-5-18 6-3 12-12 12-20 0-14-3-13-25 1-36 23-53 20-57-11-2-19-10-29-23-31-11-2-33-16-48-30l-29-27-19 24c-18 22-20 22-44 7-14-9-32-27-40-40-9-13-25-26-36-29s-23-15-26-27c-4-17-11-20-27-15-48 15-60 11-81-31-11-22-59-80-107-128-49-48-88-90-88-93 0-13 33-140 41-155 25-50 49-127 49-160 0-30 5-39 27-50 27-13 31-21 53-124 8-36 20-69 53-141 5-12 6-36 2-55-10-44-10-113 0-166 5-29 3-57-5-83-11-34-11-44 5-78 9-22 24-42 31-45 8-3 14-15 14-26s7-23 15-26c28-11 15-30-52-74-37-25-72-47-78-49-5-2-28-16-50-30s-47-30-56-36c-9-5-43-31-75-57s-66-53-75-60-20-30-24-52c-6-37-4-41 44-85 30-28 51-56 51-68 0-15-20-36-65-68-36-25-86-64-112-86-27-22-60-51-75-64-16-13-28-29-28-37 0-7 22-35 48-63 86-90 112-129 112-170 0-24 11-55 30-87 17-26 30-55 30-62 0-8 9-18 20-21s25-16 31-28c7-12 18-26 25-30 8-4 14-19 14-32 0-14 4-25 9-25 14 0 30-55 20-71-16-25-9-44 27-67 42-26 43-26 80-7 19 10 32 11 39 4 6-6 6-12 0-17-25-18-35-42-29-66 7-30 22-34 31-8 13 33 47 72 64 72 10 0 21 5 24 11 4 5 19 8 34 4 22-5 29-1 43 27 9 18 18 44 20 58 3 22 9 25 46 28 23 2 42 7 42 12 0 11 88 11 96-1 9-15 46-10 59 7 15 21 52 10 61-18 6-19 7-19 16-5 5 10 18 17 30 17 17 0 19-4 14-25-4-14-2-34 3-44 12-22-7-71-26-71-13 0-18-51-7-63 15-15 35 7 29 33s-4 28 32 33c48 6 59-7 55-68-4-45-6-48-53-70-41-19-57-21-94-14-55 10-91-3-100-38-7-29-31-25-28 5 2 16-4 23-22 28-14 3-25 12-25 20 0 16-28 18-50 4-12-7-12-12-2-22 6-6 12-20 12-30s11-23 24-28c22-8 66-59 66-75 0-4-17-5-39-1-28 4-42 2-51-9-17-21-30-19-30 4 0 11-3 22-7 24-15 9-53-13-53-30 0-10-16-42-36-71l-37-53-30 31c-19 19-39 30-58 30-34 0-79-39-79-69 0-17-6-21-30-21-22 0-30-5-30-18 0-20 18-42 35-42 7 0 17 11 23 25 14 29 42 33 42 6s-41-50-105-57c-34-4-54-11-52-18 5-16 69-24 122-16 32 5 45 3 49-7 11-28-14-57-29-33-4 6-11 7-17 4-7-5-5-12 7-20 23-17 12-48-14-39-24 7-31-3-24-38 4-20 10-26 22-23 19 6 81-47 81-68 0-10-13-16-42-18-36-3-44-7-46-26-3-17 2-25 18-29 13-3 20-12 18-22-4-16-10-16-70-4-20 4-30 0-40-16-15-25-31-27-48-6-13 16-50 21-50 6 0-5 11-16 25-25 20-13 25-25 25-55 0-34-3-38-20-34-46 12-77-66-47-117 9-15 14-29 11-32-2-3 0-17 6-32 8-23 12-25 30-14 28 18 37 2 32-55-3-37-10-51-30-65-14-9-44-37-68-62-33-34-46-42-55-33-18 18-55-11-63-47-3-17-12-30-20-30s-27-11-42-25-31-25-36-25c-6 0-7-14-3-32 6-27 5-31-6-20-7 6-21 12-31 12-16 0-16-3-6-20 14-22 43-27 53-9 4 6 22 8 44 4 48-8 66 11 57 60-12 60 40 33 62-33 9-28 8-38-8-64-14-24-16-36-9-50s7-24-2-34c-10-13-10-17 0-23 10-7 10-12 0-29-11-18-10-23 12-41 30-25 38-25 67-1 20 17 27 29 31 60 2 12 62 41 71 35 6-3 10-17 10-30 0-19 7-24 41-30 33-6 43-4 54 12 13 16 16 16 25 3s12-13 21 3c11 19 39 23 39 6 0-34 70-51 96-24 9 8 27 17 42 21 39 8 58 20 53 36-13 44-13 70 0 66 8-3 15-14 17-25 3-23 57-43 96-36 31 6 33 18 6 33-20 11-27 44-11 54 5 3 14-1 21-9 8-9 27-14 54-12 34 2 42 7 44 25 5 32 24 27 51-13 28-41 41-44 41-11 0 13 6 26 14 29s16 16 18 29c3 21 8 23 58 23 54 0 55 1 58 30 5 50 10 59 26 46 11-9 19-9 35 1s23 10 33 0c18-18 26-15 33 16 3 15 21 38 40 52 18 14 39 35 44 48 10 22 13 22 39 8 15-8 35-17 45-20 23-7 11-31-41-81-35-35-37-40-40-112l-4-75 61-58c46-44 70-60 101-65 22-4 40-12 40-20 0-7 7-19 16-26 14-11 18-11 29 4 13 18 34 21 84 11 24-5 31-12 31-31 0-13 7-26 15-30 23-8 31 5 16 29-16 26-4 39 40 40 21 0 44 9 59 24 29 27 75 40 84 25 13-20 38-13 31 9-8 26 17 37 51 22 15-8 24-8 24-1 0 12 57 69 70 69 14 0 60-46 53-53-3-4-16-7-29-7-15 0-24-8-28-25-4-15-14-25-24-25-9 0-30-16-45-35s-33-35-40-35c-26-1-85-69-71-83 6-5 93 27 134 49 14 7 41 22 60 32 19 9 55 31 80 46 25 16 51 29 59 29s36 15 63 32c61 41 98 38 98-7 0-19-11-43-29-64-16-18-33-39-38-46-4-8-26-27-49-43-50-36-165-140-288-257-70-68-88-90-78-100 9-9 16-8 30 5 19 17 103 65 207 118 33 16 74 38 90 48 17 10 57 32 90 50s69 41 81 52c11 10 26 19 32 19 7 0 31 12 55 27 100 64 143 77 167 48 21-25 83-13 103 21 4 7 32 25 62 41 35 17 63 40 75 60 14 23 40 42 92 66 134 62 149 68 165 58 24-13 52-1 68 30 10 19 39 39 88 63 77 38 106 43 124 25 9-9 18-4 38 20 35 40 58 39 85-4 26-42 23-70-7-70-12 0-24-3-29-7-10-10 15-38 43-49 35-13 38-35 9-73-14-19-26-42-26-51 0-8-7-27-16-40-8-13-19-59-23-102l-7-78 46-46c56-56 104-82 183-100 47-10 65-10 93 0 30 11 38 10 52-2 9-8 27-18 40-21 12-4 22-12 22-17s15-9 33-9c23 0 41 8 58 26 13 15 51 39 84 55s77 45 98 64c36 33 37 35 37 107 0 40-7 109-16 153-8 44-17 99-21 123-6 42-5 42 26 42 18 0 58 14 89 31 82 45 103 56 145 75 20 9 37 20 37 25s20 6 45 2c44-6 45-5 45 21 0 34 17 33 67-3 61-44 84-82 81-133-3-35 0-43 17-46 10-2 34 4 52 13 31 17 34 17 51 2 27-25 58-21 84 12 65 80 126 86 172 18 14-21 26-46 26-56 0-23 19-31 70-31 29 0 41-6 53-24 9-13 30-26 48-30 30-6 31-7 14-20-24-17-13-46 17-45 13 0 50-6 83-13 59-14 60-14 63-51 3-31 10-42 42-63 22-15 42-35 45-45 8-23 33-25 42-3 9 25-17 64-44 64-14 0-23 6-23 15 0 18 28 19 90 2 58-16 97-43 116-78 19-37 34-37 34 1 0 29 21 42 34 21 3-5 18-12 33-16 16-3 38-16 50-27 11-11 29-18 40-16 15 3 18 12 15 63-2 33-1 57 3 53s16-3 27 3c14 7 29 7 50 0 17-6 33-9 36-6 8 8-30 45-47 45s-61 47-61 66c0 7-20 15-50 19-35 5-55 14-65 28-12 18-13 23-2 27 23 9 67 47 67 59 0 6-6 11-14 11-7 0-38 14-69 30-31 17-67 30-81 30-24 0-51 22-39 33 3 4-11 14-31 22-30 13-36 20-31 35 5 17 1 21-24 26-17 4-31 9-31 13 2 19 60 70 88 76 47 10 144 77 173 119 13 20 27 36 30 36s20 20 38 45c32 44 33 45 90 45 48 0 61 4 81 25 23 25 23 25 4 39-14 11-16 18-8 26 13 13 54-3 54-20 0-6 7-10 16-10 17 0 93-55 107-77 9-15 33-17 42-4 3 5-13 20-35 32-22 13-40 26-40 30s-3 15-6 23c-6 14 1 16 48 10 43-5 56-3 67 10 12 14 11 20-9 41-13 14-31 25-41 25-9 0-22 7-29 15s-20 15-30 15c-23 0-44 26-36 45 3 8 18 15 34 15 43 0 83 22 81 45-2 36 1 45 16 45 17 0 35 30 35 57 0 11-12 35-26 54-17 24-24 42-20 60 6 33 61 115 81 123 9 3 57 1 107-4s95-7 100-4 23 0 39-6c23-10 33-10 42-1 6 6 26 11 45 11s45 9 59 20c18 14 41 20 79 20 29 0 68 6 86 14s55 23 81 33c46 17 76 44 120 107 16 23 25 26 80 26 60 0 64-2 101-40 21-22 50-42 64-45 15-3 39-9 54-14 38-12 130 11 176 46 81 60 199 160 245 206 40 40 50 46 66 37 35-18 60-12 77 21 13 25 13 36 4 60-11 25-9 32 14 60 14 17 26 35 26 41 0 5 14 29 30 52 56 77 64 273 15 351-7 11-14 45-17 75-6 65-50 181-88 230-15 19-30 42-33 50-4 8-17 31-28 50-12 19-31 53-42 75-22 41-40 67-137 196-31 41-77 108-103 149-25 42-60 89-77 105-35 33-39 68-15 136 9 24 13 54 10 66s-7 89-10 172c-5 138-3 152 14 168 10 10 29 43 42 73 28 66 58 120 68 120 4 0 12-5 19-12 8-8 12-8 12-1 0 6-7 16-15 23-18 15-13 56 17 136 10 29 20 76 21 105 2 30 13 74 25 100 12 25 22 52 22 60s9 28 19 45l19 32-28 21c-16 11-33 21-38 21s-19 11-32 25c-22 23-23 29-12 58 7 19 12 63 12 98 0 42 5 72 15 85 19 25 19 53 0 60-20 8-19 43 1 51 24 9 68-22 74-52 4-21 15-30 45-41 68-23 99-18 134 22s33 54-9 54c-33 0-48 16-31 33 6 6 11 21 11 34 0 17-6 23-22 23-12 0-36 5-54 12-26 9-39 8-74-6-38-15-45-15-58-2s-13 18 1 40c21 31 22 65 2 72-28 11-15 30 35 54 64 30 80 48 69 78-5 12-14 24-21 26s-32 9-56 16c-36 12-44 11-55-2-15-19-41-28-53-20-5 4-24 26-42 49-28 37-32 48-26 81 5 34 3 40-21 56-31 21-74 14-101-15-22-25-38-24-74 3-28 21-30 25-24 70 6 41 4 51-12 63-28 21-40 18-83-20-55-50-81-44-81 20 0 35-10 55-29 55-29 0-38 18-31 65 6 38 3 50-17 79-39 53-59 60-139 44-56-11-71-17-81-38-6-14-25-36-41-50-15-14-44-47-63-75-49-72-67-86-98-78-36 8-42 20-39 78l3 50-60 1c-55 1-119-11-138-27-5-3 15-26 42-51 63-57 67-83 23-154-18-28-32-55-32-60s-8-19-18-32c-21-27-44-22-61 15-11 23-15 25-59 18-26-4-54-13-63-21-20-18-29-9-29 31 0 18-7 38-16 46-25 20-17 151 13 208 13 24 23 54 23 66 0 15 13 31 40 49 22 14 40 33 40 40 0 32-20 64-44 70-28 7-34 21-41 92-2 27-7 61-11 75-9 41 11 69 50 69 32 0 66 24 66 48 0 15-46 16-55 2-13-20-30-9-43 28-26 75-26 72 1 72 34 0 72 32 64 53-4 10-15 17-26 17s-23 5-26 10c-9 15-46 12-66-6-16-14-20-12-57 28-54 59-92 105-92 111 0 3-20 35-45 71-25 37-45 69-45 72s-11 20-25 38-25 40-25 48 18 36 40 61 40 51 40 59 7 23 15 34c20 26 20 163 0 190-8 10-15 28-15 40 0 30-37 80-108 148-34 32-64 67-67 77-4 10-26 27-51 38-42 19-61 51-29 51 8 0 15 9 15 20 0 14-7 20-22 20-13 0-32 7-42 15-25 19-40 19-56 0zm-457-209c5-13-21-46-36-46-4 0-7 14-7 30 0 23 5 30 19 30 10 0 21-6 24-14zm-1743-816c0-5-9-10-21-10-11 0-17 5-14 10 3 6 13 10 21 10s14-4 14-10zm-1506-15c14-14 13-20-5-55-13-25-28-40-40-40-21 0-24 12-9 38 5 9 14 29 20 45 11 31 13 32 34 12zm-924-1346c0-15-5-20-22-17-34 5-37 38-4 38 20 0 26-5 26-21zm98-3054c-2-5-28-32-58-59s-59-56-63-63c-13-21-28-5-21 23 5 20 2 24-15 24-14 0-21 6-21 20 0 17 7 20 39 20 22 0 43 5 46 10 3 6 17 10 29 10 13 0 29 7 36 15 14 17 34 16 28 0zm-711-571c10-27-14-40-37-19-11 10-17 22-14 26 9 15 44 10 51-7zm77-85c4-23 0-39-15-60-23-33-37-37-46-13-6 16 33 104 46 104 5 0 11-14 15-31z"/> <path d="m6590 7925c0-8 5-15 10-15 6 0 10 7 10 15s-4 15-10 15c-5 0-10-7-10-15z"/> <path d="m5694 7916c-8-21 3-49 16-41 5 3 10 15 10 25 0 25-18 36-26 16z"/> <path d="m6540 7900c0-6 11-15 25-20s25-14 25-20c0-5 5-10 10-10 15 0 12 17-7 40-18 21-53 27-53 10z"/> <path d="m5635 7839c-10-15 3-25 16-12 7 7 7 13 1 17-6 3-14 1-17-5z"/> <path d="m5262 7658c7-19 38-22 38-4 0 10-9 16-21 16s-19-5-17-12z"/> <path d="m2945 7289c-9-14 24-49 46-49 29 0 34 21 8 41-27 21-45 24-54 8z"/> <path d="m4020 7261c0-15 31-42 41-36 14 10 10 32-7 39-22 9-34 7-34-3z"/> <path d="m2187 6913c-3-5-7-29-11-54-5-35-3-49 8-58 19-16 36-6 36 22 0 11 12 33 26 48s23 32 20 38c-8 12-72 15-79 4z"/> <path d="m7162 6401c-8-5-12-17-10-27 2-15 15-20 58-26 30-3 58-4 62-2 17 10 7 26-24 38-55 22-72 26-86 17z"/> <path d="m1707 6004c-8-8 1-24 14-24 5 0 9 7 9 15 0 15-12 20-23 9z"/> <path d="m1670 5940c-13-25-5-40 20-40 24 0 31 11 23 38-7 28-29 28-43 2z"/> <path d="m1795 5920c-3-6 1-13 10-16 19-8 30 0 20 15-8 14-22 14-30 1z"/> <path d="m1396 5503c10-49 13-53 39-53 32 0 34 29 2 58-33 31-49 28-41-5z"/> <path d="m1226 5412c-6-9 29-42 44-42 6 0 10 5 10 10 0 6-7 10-15 10s-15 7-15 15c0 16-15 20-24 7z"/> <path d="m1141 5357c0-11-10-21-21-24-21-6-28-47-10-58 15-9 42 41 37 72-2 15-5 20-6 10z"/> <path d="m8445 5020c-8-13 20-24 41-16 20 8 9 26-16 26-10 0-22-5-25-10z"/> <path d="m8332 4490c1-13 9-25 16-28 17-5 15 23-4 39-14 11-15 10-12-11z"/> <path d="m8373 4395c0-27 2-38 4-22 2 15 2 37 0 50-2 12-4 0-4-28z"/> <path d="m8310 4250c-13-9-12-13 6-28 12-10 24-27 26-38s11-19 23-19c31 0 33 58 3 79-26 18-37 20-58 6z"/> <path d="m8671 4253c-40-8-131-83-137-112-3-14-10-47-16-73-9-38-8-56 7-105 21-69 40-92 100-122 24-12 47-26 50-32 10-15 97-11 151 7 51 17 104 60 132 107 9 15 22 27 29 27 18 0 19 170 1 170-7 0-24 16-38 34-14 19-47 49-73 67-42 29-58 34-115 35-37 1-78 0-91-3z"/> <path d="m8415 3740c-13-20 7-70 37-95 40-34 82-31 86 6 6 53-99 129-123 89z"/> <path d="m1256 2473c-11-11-6-23 9-23 8 0 15 4 15 9 0 13-16 22-24 14z"/> <path d="m1310 2406c-6-8-21-16-32-18-40-6-32-28 9-26 43 1 117 34 108 48-9 15-71 12-85-4z"/> <path d="m800 2377c0-15 80-71 88-62 8 8-59 75-75 75-7 0-13-6-13-13z"/> <path d="m716 2364c-9-22-8-24 9-24 8 0 15 6 15 14 0 22-17 28-24 10z"/> <path d="m1445 2365c-19-14-19-16-2-29 9-7 17-25 17-40 0-21 5-26 25-26 35 0 42 26 16 54-12 13-21 29-19 36 5 19-16 22-37 5z"/> <path d="m650 2316c0-10 9-16 21-16 24 0 21 23-4 28-10 2-17-3-17-12z"/> <path d="m1080 2275c-20-21-21-25-7-30 19-8 67 22 67 41 0 22-35 16-60-11z"/> <path d="m1196 2284c-10-25-7-34 9-34 8 0 15 9 15 19 0 26-16 35-24 15z"/> <path d="m627 2243c13-38 43-58 43-30 0 14-31 47-43 47-3 0-4-8 0-17z"/> <path d="m716 2232c-3-6-1-14 5-17 15-10 25 3 12 16-7 7-13 7-17 1z"/> <path d="m1130 2225c0-8 7-15 15-15s15 7 15 15-7 15-15 15-15-7-15-15z"/> <path d="m773 2214c-7-19 34-64 59-64 31 0 21 36-17 59-31 18-37 19-42 5z"/> <path d="m952 2198c3-7 18-15 34-16 16-2 31-8 34-12 3-5 17 0 30 10 19 15 21 20 8 20-9 0-19-6-22-12-3-10-9-8-19 5-16 20-71 24-65 5z"/> <path d="m445 2167c-4-10-5-21-1-24 10-10 18 4 13 24-4 17-4 17-12 0z"/> <path d="m617 2174c-10-11 3-24 24-24 10 0 19 7 19 15 0 15-31 21-43 9z"/> <path d="m1148 2126c-19-14-23-26-10-26 4 0 18 9 32 20 16 13 20 20 10 19-8 0-23-6-32-13z"/> <path d="m734 2085c-9-20-14-38-11-42 4-3 9 2 13 11 3 9 12 16 20 16s14 10 14 25c0 36-16 31-36-10z"/> <path d="m920 2105c-15-18-6-45 15-45 9 0 15 9 15 24 0 31-14 40-30 21z"/> <path d="m1e3 2101c-14-26-13-44 2-35 7 4 30 7 53 6 35-2 37 0 20 10-11 6-24 17-28 25-12 19-35 16-47-6z"/> <path d="m645 2060c-10-16 16-43 28-31 11 11 2 41-12 41-5 0-13-5-16-10z"/> <path d="m495 2051c-3-5 8-16 25-24 33-17 35-15 20 14-11 20-35 25-45 10z"/> <path d="m776 2053c-3-3-6-21-6-38 0-36 32-58 69-48 31 8 22 37-12 41-19 2-27 9-27 22 0 20-13 33-24 23z"/> <path d="m747 1848c11-13 23-31 26-40 7-21 27-24 27-4 0 17-45 66-61 66-8 0-4-9 8-22z"/> <path d="m555 1840c-3-5 3-10 15-10s18 5 15 10c-3 6-10 10-15 10s-12-4-15-10z"/> <path d="m495 1826c-11-8-16-19-12-30 10-24 25-19 42 14 17 34 4 41-30 16z"/> <path d="m366 1811c-3-5 1-12 10-15 25-10 34-7 34 9s-35 21-44 6z"/> <path d="m600 1770c0-16 7-20 31-20s30 3 25 16c-3 9-6 18-6 20s-11 4-25 4c-18 0-25-5-25-20z"/> <path d="m700 1778c1-21 26-48 44-48 25 0 31 29 10 45-24 18-54 19-54 3z"/> <path d="m853 1761c-14-22-8-31 23-31 29 0 39 16 24 35-17 20-33 19-47-4z"/> <path d="m740 1685c0-8 7-15 15-15s15 7 15 15-7 15-15 15-15-7-15-15z"/> <path d="m612 1669c-12-18-10-25 12-54 14-19 26-36 26-39s9-15 21-27c13-13 19-30 17-47-2-18 2-28 13-30 13-2 15 6 12 55-6 75-9 85-30 82-42-4-46 0-39 41 7 45-10 55-32 19z"/> <path d="m416 1662c-3-5 8-19 24-30 45-34 82-26 55 11-7 10-19 15-28 11-8-3-18-1-22 5-7 13-22 14-29 3z"/> <path d="m847 1664c-10-11 3-24 24-24 10 0 19 7 19 15 0 15-31 21-43 9z"/> <path d="m765 1640c-10-16 6-80 21-80 7 0 11 6 8 14s-1 23 4 33 7 24 5 31c-6 14-29 16-38 2z"/> <path d="m263 1624c-9-25 13-40 26-16 10 19 6 32-11 32-5 0-11-7-15-16z"/> <path d="m830 1565c0-9 5-15 11-13s11 8 11 13-5 11-11 13-11-4-11-13z"/> <path d="m403 1555c-25-10-30-30-12-41 14-8 42 19 37 37-2 11-9 12-25 4z"/> <path d="m535 1514c-26-28-41-62-31-71 13-14 55 22 69 58 13 34 14 39 1 39-8 0-26-12-39-26z"/> <path d="m313 1467c-24-11-29-22-14-31 8-6 48 31 40 38-2 2-14-1-26-7z"/> <path d="m641 1436c-8-9-11-19-7-23 9-9 29 13 24 27-2 8-8 7-17-4z"/> <path d="m415 1389c-8-38 12-67 21-31 8 29 28 28 48-3 10-15 22-22 31-19 20 8 19 34 0 34-9 0-27 11-41 25-33 33-51 32-59-6z"/> <path d="m350 1385c0-10 7-15 18-13 21 4 19 22-2 26-10 2-16-3-16-13z"/> <path d="m7102 1387c-6-7-34-21-61-31-28-10-53-21-55-25-3-4 16-30 42-58 36-38 60-54 100-67 62-18 83-12 107 34 23 44 18 69-21 116-29 36-42 44-68 44-19 0-38-6-44-13z"/> <path d="m640 1341c0-10-7-24-15-31-18-15-19-34-4-61 8-16 13-18 25-8 8 6 14 22 14 34 0 13 7 25 15 29 8 3 15 17 15 31 0 20-5 25-25 25-18 0-25-5-25-19z"/> <path d="m347 1309c-9-6-21-8-26-4-5 3-12 1-16-5-3-5 3-10 13-10 11 0 26-10 35-22 21-31 39-13 23 24-9 21-15 24-29 17z"/> <path d="m570 1269c0-11 5-17 10-14 6 3 10 13 10 21s-4 14-10 14c-5 0-10-9-10-21z"/> <path d="m490 1271c0-6 8-16 18-23s22-22 26-33c7-20 8-20 18-1 8 15 7 22-6 31-9 7-16 17-16 24 0 6-9 11-20 11s-20-4-20-9z"/> <path d="m540 1129c0-11 5-17 10-14 6 3 10 13 10 21s-4 14-10 14c-5 0-10-9-10-21z"/> <path d="m6320 865c0-29 25-38 86-33 39 3 49 16 23 29-8 3-24 11-36 17-13 7-34 12-48 12-20 0-25-5-25-25z"/> <path d="m7006 811c-22-24-21-28 15-46 28-15 32-15 50 1 22 20 18 29-20 49-26 13-30 13-45-4z"/> <path d="m7215 820c-3-6 1-13 10-16 19-8 30 0 20 15-8 14-22 14-30 1z"/> <path d="m7135 739c-10-15 24-99 40-99 7 0 15 7 19 15 3 8 16 15 30 15 24 0 36-16 36-51 0-14 7-19 25-19 20 0 25 5 25 24 0 14-11 33-25 44s-25 29-25 41c0 11-9 25-19 31-26 13-98 13-106-1z"/> <path d="m1589 722c-22-18-20-42 4-42 15 0 38 48 27 55-4 3-18-3-31-13z"/> <path d="m430 715c7-8 16-15 21-15s9 7 9 15c0 9-9 15-21 15-18 0-19-2-9-15z"/> <path d="m7090 665c0-11 7-15 23-13 12 2 22 8 22 13 0 6-10 11-22 13-16 2-23-2-23-13z"/> <path d="m6763 573c-4-10 2-23 16-35 27-21 54-23 70-5 8 10 4 19-19 35-35 26-58 28-67 5z"/> <path d="m595 520c-4-6-3-16 3-22s12-6 17 2c4 6 3 16-3 22s-12 6-17-2z"/> <path d="m6802 498c-8-8-9-15-1-25 16-19 29-16 29 6 0 25-13 34-28 19z"/> <path d="m2223 419c14-8 22-8 30 0s3 11-18 11c-26-1-28-2-12-11z"/> <path d="m5967 413c-3-3-3-11 0-19 6-17 56-19 51-2-5 13-43 29-51 21z"/> <path d="m6443 364c-9-25 13-40 26-16 10 19 6 32-11 32-5 0-11-7-15-16z"/> <path d="m2997 271c-61-40-71-87-21-109 35-17 77-15 119 5s55 55 34 92c-12 21-23 26-59 28-30 1-55-4-73-16z"/> </g> </svg>